<?xml version="1.0" encoding="UTF-8"?>
<svg version="1.1" xmlns="http://www.w3.org/2000/svg" width="500" height="499">
<path d="M0 0 C10.56 0 21.12 0 32 0 C36.46195166 7.8084154 36.46195166 7.8084154 37.53515625 11.0078125 C38.88828805 14.79730853 40.58494854 18.29738449 42.4375 21.875 C47.82513193 32.43475858 52.68961037 43.23864304 57.62841797 54.01318359 C59.44703832 57.97349001 61.28144352 61.92625022 63.125 65.875 C63.64320313 66.98617187 64.16140625 68.09734375 64.6953125 69.2421875 C65.76863624 71.51094966 66.87314076 73.75766393 68 76 C69.13855221 62.11767706 69.31948173 48.23401074 69.55224609 34.31274414 C69.60471998 31.24879847 69.66165115 28.1849562 69.71875 25.12109375 C69.73232544 24.21233994 69.74590088 23.30358612 69.7598877 22.36729431 C69.90066771 14.85986062 70.46253689 7.52448352 71 0 C80.57 0 90.14 0 100 0 C101.06661433 3.199843 101.10880611 5.42802586 101.08229065 8.78959656 C101.07525116 9.99694458 101.06821167 11.2042926 101.06095886 12.44822693 C101.04797649 13.7879953 101.03489642 15.12776273 101.02172852 16.4675293 C101.01158539 17.87681779 101.00189176 19.28610959 100.99261475 20.69540405 C100.96613706 24.52366206 100.93335687 28.35184344 100.89946485 32.18004203 C100.86511856 36.17988144 100.83654109 40.17976191 100.80735779 44.17964172 C100.75120753 51.75505303 100.68985168 59.33041293 100.62663645 66.90576822 C100.55492461 75.52958547 100.48899943 84.15344391 100.42356598 92.77731073 C100.28882687 110.5182625 100.1460385 128.2591374 100 146 C84.16 146.495 84.16 146.495 68 147 C60.49956294 131.99912587 60.49956294 131.99912587 57.30859375 124.12109375 C55.82208819 120.57566706 54.20540773 117.09964519 52.5625 113.625 C50.15123895 108.51172568 47.80574761 103.37691101 45.5625 98.1875 C45.06878906 97.04667969 44.57507813 95.90585937 44.06640625 94.73046875 C43 92 43 92 43 90 C42.01 89.505 42.01 89.505 41 89 C37.45252138 82.51667701 34.86060697 75.86545672 32 69 C31.67 94.41 31.34 119.82 31 146 C21.1 146 11.2 146 1 146 C0.67 97.82 0.34 49.64 0 0 Z M69 79 C70 81 70 81 70 81 Z " fill="#FDD303" transform="translate(283,175)"/>
<path d="M0 0 C0.80580391 6.8204668 1.13751358 13.51794187 1.09765625 20.3828125 C1.0962413 21.32309296 1.09482635 22.26337341 1.09336853 23.23214722 C1.08783008 26.19646568 1.07528962 29.16070488 1.0625 32.125 C1.05747703 34.15104057 1.05291553 36.17708233 1.04882812 38.203125 C1.03788092 43.13544659 1.02065981 48.06770992 1 53 C5.16552402 46.92789515 8.96106798 40.73284587 12.5625 34.3125 C17.03350536 26.41584508 21.57274683 18.56357971 26.1875 10.75 C27.03453491 9.3120105 27.03453491 9.3120105 27.89868164 7.8449707 C28.42067139 6.96284912 28.94266113 6.08072754 29.48046875 5.171875 C29.94348389 4.3890918 30.40649902 3.60630859 30.88354492 2.79980469 C32 1 32 1 33 0 C35.73894085 -0.08858646 38.4525327 -0.11523479 41.19140625 -0.09765625 C42.01124496 -0.0962413 42.83108368 -0.09482635 43.67576599 -0.09336853 C46.30471382 -0.08775289 48.93357773 -0.07519779 51.5625 -0.0625 C53.34049357 -0.05748701 55.11848846 -0.05292376 56.89648438 -0.04882812 C61.26435545 -0.03777839 65.63216348 -0.02050331 70 0 C70 0.66 70 1.32 70 2 C69.34 2 68.68 2 68 2 C67.88841553 2.72799805 67.77683105 3.45599609 67.66186523 4.20605469 C66.96624134 7.14250613 65.96598387 9.12843448 64.41015625 11.703125 C63.87817627 12.59233643 63.34619629 13.48154785 62.7980957 14.39770508 C62.22534912 15.3389624 61.65260254 16.28021973 61.0625 17.25 C59.86960018 19.23816637 58.67689372 21.22644877 57.484375 23.21484375 C56.89205078 24.19694824 56.29972656 25.17905273 55.68945312 26.19091797 C53.36934028 30.04860849 51.0883041 33.92856545 48.8125 37.8125 C48.01188128 39.17457472 47.21110082 40.53655437 46.41015625 41.8984375 C44.72987527 44.75746418 43.05041004 47.61696911 41.37109375 50.4765625 C36.94826484 58.00526923 32.51162261 65.52400346 28 73 C28.32581055 73.54132568 28.65162109 74.08265137 28.98730469 74.64038086 C36.69279371 87.46144386 44.30675954 100.33737744 51.9352417 113.2043457 C52.87591284 114.79073407 53.81706992 116.37683428 54.75830078 117.96289062 C68.71869826 141.49912718 68.71869826 141.49912718 70 147 C64.83911231 147.10457648 59.68339114 147.14324144 54.52148438 147.12207031 C52.7677923 147.12401167 51.01402388 147.14365395 49.26074219 147.18164062 C34.73339069 147.47845371 34.73339069 147.47845371 30.65942383 144.00366211 C29.08834697 141.39225378 28.03542284 138.86203596 27 136 C26.18682484 134.54037294 25.34257087 133.09752669 24.46484375 131.67578125 C23.62134727 130.22196203 22.77893295 128.76751451 21.9375 127.3125 C21.47996338 126.52302979 21.02242676 125.73355957 20.55102539 124.92016602 C17.82661489 120.20573544 15.13513479 115.47406353 12.46875 110.7265625 C11.88101807 109.68072998 11.29328613 108.63489746 10.68774414 107.55737305 C9.53540001 105.50327824 8.38606726 103.44749067 7.23999023 101.38989258 C6.71606689 100.45556396 6.19214355 99.52123535 5.65234375 98.55859375 C5.18820068 97.72642334 4.72405762 96.89425293 4.24584961 96.03686523 C3.03541764 93.87924507 3.03541764 93.87924507 1 92 C1.00222061 92.60277267 1.00444122 93.20554535 1.00672913 93.82658386 C1.02886562 100.10451667 1.04394158 106.38243838 1.05493164 112.66040039 C1.05995801 115.00285289 1.06678008 117.34530225 1.07543945 119.68774414 C1.08757918 123.05616022 1.09324531 126.42453478 1.09765625 129.79296875 C1.10281754 130.83897751 1.10797882 131.88498627 1.11329651 132.96269226 C1.11337204 133.94333145 1.11344757 134.92397064 1.11352539 135.93432617 C1.115746 136.79370285 1.11796661 137.65307953 1.12025452 138.53849792 C1 141 1 141 0 146 C-10.23 146 -20.46 146 -31 146 C-31.02297945 133.60841841 -31.04115493 121.21685193 -31.05181217 108.82525349 C-31.05693793 103.06570429 -31.06383675 97.30617094 -31.07543945 91.54663086 C-31.13533967 61.01586492 -30.84367839 30.51972213 -30 0 C-26.8471356 -0.13909696 -23.69426879 -0.27813238 -20.54138184 -0.41671753 C-18.70089729 -0.4982366 -16.86044751 -0.58058934 -15.0201416 -0.66604614 C-13.37304642 -0.74244755 -11.72559238 -0.81100216 -10.078125 -0.87890625 C-9.00981445 -0.9260376 -7.94150391 -0.97316895 -6.84082031 -1.02172852 C-4.30787809 -1.00235486 -2.41567777 -0.66095594 0 0 Z M0 55 C1 57 1 57 1 57 Z M0 88 C1 90 1 90 1 90 Z " fill="#FDD403" transform="translate(151,175)"/>
<path d="M0 0 C2.48555817 0.10026954 4.96227536 0.26271903 7.44422913 0.42868042 C9.14192433 0.49396393 10.83986068 0.55326683 12.53797913 0.60641479 C16.67939245 0.74900234 20.80914456 0.97273032 24.94422913 1.24118042 C20.93157614 9.57493826 16.51261198 17.5367261 11.69422913 25.42868042 C10.36163977 27.63016561 9.02960959 29.83198936 7.69813538 32.03414917 C7.05505432 33.09553101 6.41197327 34.15691284 5.74940491 35.25045776 C2.94762731 39.8922992 0.19070743 44.55988134 -2.53453064 49.24703979 C-4.61174795 52.81526585 -6.73412891 56.34554552 -8.92295837 59.84664917 C-9.39435242 60.61299683 -9.86574646 61.37934448 -10.35142517 62.16891479 C-11.25328452 63.63315092 -12.16808809 65.08952421 -13.0980072 66.53610229 C-14.93047527 69.53848841 -16.02473759 71.55186542 -16.18467712 75.10446167 C-14.47836139 79.84553964 -11.93658287 83.95832271 -9.30577087 88.24118042 C-8.1140869 90.21757549 -6.92268861 92.19414284 -5.73155212 94.17086792 C-5.1200531 95.17859253 -4.50855408 96.18631714 -3.87852478 97.22457886 C-0.49778444 102.81959997 2.80114956 108.46303867 6.11244202 114.09933472 C8.81300111 118.68186518 11.5484359 123.23642918 14.35829163 127.75289917 C14.90799622 128.64412476 15.45770081 129.53535034 16.02406311 130.45358276 C17.05971819 132.12856023 18.10537768 133.7974136 19.16322327 135.45846558 C21.97841763 140.03006586 23.59274484 144.0046224 24.55628967 149.28829956 C25.01849104 151.61501366 25.8453153 153.49139808 27.00672913 155.55368042 C28.42598853 158.10834734 29.33086664 160.37671439 29.94422913 163.24118042 C28.62422913 163.57118042 27.30422913 163.90118042 25.94422913 164.24118042 C25.61422913 162.92118042 25.28422913 161.60118042 24.94422913 160.24118042 C23.95422913 160.24118042 22.96422913 160.24118042 21.94422913 160.24118042 C21.61422913 161.23118042 21.28422913 162.22118042 20.94422913 163.24118042 C19.29422913 163.24118042 17.64422913 163.24118042 15.94422913 163.24118042 C16.73410386 161.32377459 17.5262006 159.40728401 18.31922913 157.49118042 C18.7600885 156.42383667 19.20094788 155.35649292 19.65516663 154.25680542 C20.6703467 151.88189931 21.78917332 149.55129203 22.94422913 147.24118042 C11.72422913 147.57118042 0.50422913 147.90118042 -11.05577087 148.24118042 C-11.55077087 145.76618042 -11.55077087 145.76618042 -12.05577087 143.24118042 C-12.71577087 142.91118042 -13.37577087 142.58118042 -14.05577087 142.24118042 C-14.05577087 141.25118042 -14.05577087 140.26118042 -14.05577087 139.24118042 C-14.71577087 139.24118042 -15.37577087 139.24118042 -16.05577087 139.24118042 C-17.45191491 136.76218829 -18.84769662 134.2829933 -20.24327087 131.80368042 C-20.65673767 131.06955933 -21.07020447 130.33543823 -21.49620056 129.57907104 C-23.61762322 125.80950462 -25.72556922 122.03370241 -27.80577087 118.24118042 C-29.75134291 114.70254418 -31.89333444 111.32408536 -34.13780212 107.96774292 C-35.05577087 106.24118042 -35.05577087 106.24118042 -35.05577087 103.24118042 C-35.71577087 103.24118042 -36.37577087 103.24118042 -37.05577087 103.24118042 C-37.71577087 100.93118042 -38.37577087 98.62118042 -39.05577087 96.24118042 C-39.71577087 96.24118042 -40.37577087 96.24118042 -41.05577087 96.24118042 C-41.89108337 94.50868042 -41.89108337 94.50868042 -42.74327087 92.74118042 C-44.61066386 88.97292862 -46.75504201 85.48894948 -49.10264587 82.00289917 C-50.05577087 80.24118042 -50.05577087 80.24118042 -50.05577087 77.24118042 C-50.71577087 77.24118042 -51.37577087 77.24118042 -52.05577087 77.24118042 C-52.73545837 75.59274292 -52.73545837 75.59274292 -53.05577087 73.24118042 C-51.87608337 70.51461792 -51.87608337 70.51461792 -50.18077087 67.61618042 C-49.626474 66.65453979 -49.07217712 65.69289917 -48.50108337 64.70211792 C-48.02413025 63.89000854 -47.54717712 63.07789917 -47.05577087 62.24118042 C-46.72577087 61.58118042 -46.39577087 60.92118042 -46.05577087 60.24118042 C-45.39577087 60.24118042 -44.73577087 60.24118042 -44.05577087 60.24118042 C-43.99389587 59.59536011 -43.93202087 58.94953979 -43.86827087 58.28414917 C-42.70021327 53.90954882 -40.40320648 50.39760622 -38.05577087 46.55368042 C-37.13875911 45.02914836 -36.22207662 43.50441818 -35.30577087 41.97946167 C-34.89842712 41.309552 -34.49108337 40.63964233 -34.07139587 39.94943237 C-33.01344655 38.21710155 -33.01344655 38.21710155 -32.05577087 36.24118042 C-31.39577087 36.24118042 -30.73577087 36.24118042 -30.05577087 36.24118042 C-29.98487244 35.58118042 -29.913974 34.92118042 -29.84092712 34.24118042 C-28.76109461 30.11525322 -26.69976504 26.8649607 -24.49327087 23.24118042 C-24.08786072 22.56184448 -23.68245056 21.88250854 -23.26475525 21.18258667 C-22.38647027 19.7165367 -21.48504756 18.26418304 -20.56504822 16.82394409 C-18.93839872 14.16175051 -18.93839872 14.16175051 -17.58164978 10.80880737 C-13.25117794 1.74153408 -9.56072772 -0.11296195 0 0 Z " fill="#FDD404" transform="translate(250.05577087402344,173.75881958007813)"/>
<path d="M0 0 C0.33 0 0.66 0 1 0 C1 46.53 1 93.06 1 141 C-14.84 141.495 -14.84 141.495 -31 142 C-31.66 140.02 -32.32 138.04 -33 136 C-32.34 136 -31.68 136 -31 136 C-31 136.99 -31 137.98 -31 139 C-21.1 139 -11.2 139 -1 139 C-1.00523682 134.86033691 -1.01047363 130.72067383 -1.01586914 126.45556641 C-1.03240665 112.80900621 -1.04352272 99.16244618 -1.05181217 85.51587868 C-1.05697359 77.23844518 -1.06401338 68.96102116 -1.07543945 60.68359375 C-1.08539097 53.47095972 -1.09185455 46.25833255 -1.09408849 39.04569185 C-1.0953948 35.22488644 -1.09847564 31.40410067 -1.10573006 27.58330154 C-1.11249764 23.98993139 -1.11461545 20.39658904 -1.11310768 16.80321312 C-1.11351566 14.84981813 -1.11890703 12.89642619 -1.12442017 10.94303894 C-1.1230455 9.78755051 -1.12167084 8.63206207 -1.12025452 7.44155884 C-1.12117631 6.43311731 -1.1220981 5.42467579 -1.12304783 4.38567543 C-1 2 -1 2 0 0 Z " fill="#F0D338" transform="translate(382,180)"/>
<path d="M0 0 C0.33 0 0.66 0 1 0 C1.77718405 10.29035219 2.11862867 20.4935811 2.01403427 30.81183052 C1.99149397 33.13797869 1.97775989 35.46403981 1.96633911 37.79026794 C1.93319685 44.39000047 1.89078982 50.98958457 1.82861328 57.58911133 C1.79087431 61.65999421 1.76792609 65.73073937 1.75430679 69.80177116 C1.7462986 71.33949624 1.73275575 72.87720356 1.71337509 74.41482735 C1.68675062 76.56000963 1.67899173 78.70452591 1.67529297 80.84985352 C1.66561493 82.06512222 1.65593689 83.28039093 1.64596558 84.53248596 C1.90008832 88.72877802 1.90008832 88.72877802 5 95 C13.25 95.33 21.5 95.66 30 96 C30 94.02 30 92.04 30 90 C30.33 90 30.66 90 31 90 C31 92.64 31 95.28 31 98 C20.77 98 10.54 98 0 98 C0 65.66 0 33.32 0 0 Z " fill="#F8D92E" transform="translate(120,223)"/>
<path d="M0 0 C10.56 0 21.12 0 32 0 C36 7 36 7 35.75 9.9375 C35.5025 10.618125 35.255 11.29875 35 12 C34.67 12 34.34 12 34 12 C33.566875 10.63875 33.566875 10.63875 33.125 9.25 C32.01252932 5.80833525 32.01252932 5.80833525 30 2 C20.76 2 11.52 2 2 2 C2 46.55 2 91.1 2 137 C1.67 137 1.34 137 1 137 C0.67 91.79 0.34 46.58 0 0 Z " fill="#F0D03C" transform="translate(283,175)"/>
<path d="M0 0 C2.21635387 3.32453081 2.9136805 6.16593119 4 10 C4.50113152 11.23732989 5.02178306 12.46694962 5.5625 13.6875 C6.64525012 16.1825329 7.47101245 18.35506227 8 21 C6.68 21.33 5.36 21.66 4 22 C3.505 20.02 3.505 20.02 3 18 C2.01 18 1.02 18 0 18 C-0.33 18.99 -0.66 19.98 -1 21 C-2.65 21 -4.3 21 -6 21 C-5.21012527 19.08259417 -4.41802852 17.16610359 -3.625 15.25 C-3.18414062 14.18265625 -2.74328125 13.1153125 -2.2890625 12.015625 C-1.27388243 9.64071889 -0.15505581 7.31011161 1 5 C-9.56 5 -20.12 5 -31 5 C-31 4.67 -31 4.34 -31 4 C-20.77 4 -10.54 4 0 4 C0 2.68 0 1.36 0 0 Z " fill="#ECCE34" transform="translate(272,316)"/>
<path d="M0 0 C0 4.62 0 9.24 0 14 C-0.33 14 -0.66 14 -1 14 C-1 9.71 -1 5.42 -1 1 C-1.99 1.495 -1.99 1.495 -3 2 C-4.8863912 2.084915 -6.77578515 2.107193 -8.6640625 2.09765625 C-9.78554687 2.09443359 -10.90703125 2.09121094 -12.0625 2.08789062 C-13.238125 2.07951172 -14.41375 2.07113281 -15.625 2.0625 C-16.80835938 2.05798828 -17.99171875 2.05347656 -19.2109375 2.04882812 C-22.14067507 2.03701467 -25.07031272 2.02054258 -28 2 C-27.98839844 3.1859375 -27.97679688 4.371875 -27.96484375 5.59375 C-27.89497099 16.11287596 -28.18975593 26.51023298 -29 37 C-29.33 37 -29.66 37 -30 37 C-30 24.79 -30 12.58 -30 0 C-23.68875 -0.2784375 -23.68875 -0.2784375 -17.25 -0.5625 C-15.9290332 -0.62381104 -14.60806641 -0.68512207 -13.24707031 -0.74829102 C-11.67844238 -0.81294556 -11.67844238 -0.81294556 -10.078125 -0.87890625 C-9.00981445 -0.9260376 -7.94150391 -0.97316895 -6.84082031 -1.02172852 C-4 -1 -4 -1 0 0 Z " fill="#F1D12F" transform="translate(151,175)"/>
<path d="M0 0 C0.66 0.33 1.32 0.66 2 1 C2.08096803 2.45742463 2.13917774 3.91612807 2.1875 5.375 C2.22230469 6.18710937 2.25710937 6.99921875 2.29296875 7.8359375 C2.19628906 8.55007813 2.09960938 9.26421875 2 10 C-1.69486103 12.46324069 -3.63293092 12.38991688 -8 12 C-10 10.9375 -10 10.9375 -11 9 C-11 5.5 -11 5.5 -10 2 C-6.55530983 -1.06194681 -4.33332454 -1.40540255 0 0 Z M-6 3 C-6.33 3.99 -6.66 4.98 -7 6 C-6.01 6.99 -5.02 7.98 -4 9 C-3.01 8.34 -2.02 7.68 -1 7 C-1.33 6.34 -1.66 5.68 -2 5 C-2.99 5 -3.98 5 -5 5 C-5.33 4.34 -5.66 3.68 -6 3 Z " fill="#F2CF31" transform="translate(148,325)"/>
<path d="M0 0 C1.41377341 2.63904371 2.37240135 5.07120629 3 8 C1.8553125 8.2784375 1.8553125 8.2784375 0.6875 8.5625 C-3.11739171 10.59767464 -3.58107854 13.01350639 -5 17 C-5.37125 17.886875 -5.7425 18.77375 -6.125 19.6875 C-6.9171851 21.78113205 -7.51493275 23.81719738 -8 26 C-7.34 26 -6.68 26 -6 26 C-6 26.99 -6 27.98 -6 29 C-5.01 29.33 -4.02 29.66 -3 30 C-2.87625 30.763125 -2.7525 31.52625 -2.625 32.3125 C-2.11897208 35.20267136 -2.11897208 35.20267136 0 38 C-0.375 40.1875 -0.375 40.1875 -1 42 C-1.391875 41.175 -1.78375 40.35 -2.1875 39.5 C-3.94144377 36.11307411 -5.89485771 32.99795617 -8.01171875 29.83203125 C-9 28 -9 28 -9 25 C-9.66 25 -10.32 25 -11 25 C-11.6796875 23.3515625 -11.6796875 23.3515625 -12 21 C-10.8203125 18.2734375 -10.8203125 18.2734375 -9.125 15.375 C-8.29355469 13.93253906 -8.29355469 13.93253906 -7.4453125 12.4609375 C-6.96835938 11.64882812 -6.49140625 10.83671875 -6 10 C-5.67 9.34 -5.34 8.68 -5 8 C-4.34 8 -3.68 8 -3 8 C-2.87625 7.236875 -2.7525 6.47375 -2.625 5.6875 C-2 3 -2 3 0 0 Z " fill="#F8DA21" transform="translate(209,226)"/>
<path d="M0 0 C11.88 0 23.76 0 36 0 C29.25 13.5 29.25 13.5 25 20 C23.90341064 16.71023192 24.20046862 15.28696233 25 12 C25.99 12 26.98 12 28 12 C28.2165625 11.1028125 28.2165625 11.1028125 28.4375 10.1875 C28.8872439 8.43849596 29.42892341 6.71322977 30 5 C30.66 5 31.32 5 32 5 C32 4.01 32 3.02 32 2 C21.44 2 10.88 2 0 2 C0 2.99 0 3.98 0 5 C-0.66 5 -1.32 5 -2 5 C-1.34 3.35 -0.68 1.7 0 0 Z " fill="#F1D338" transform="translate(239,175)"/>
<path d="M0 0 C3 1 3 1 5 4 C5.66 2.68 6.32 1.36 7 0 C7.99 0.33 8.98 0.66 10 1 C10 4.96 10 8.92 10 13 C8.35 13 6.7 13 5 13 C4.67 12.01 4.34 11.02 4 10 C3.0409375 10.99 3.0409375 10.99 2.0625 12 C0 14 0 14 -1 14 C-1.02685938 11.85423363 -1.04633088 9.70837355 -1.0625 7.5625 C-1.07410156 6.36753906 -1.08570313 5.17257812 -1.09765625 3.94140625 C-1 1 -1 1 0 0 Z M2 7 C3 9 3 9 3 9 Z " fill="#F5D21C" transform="translate(171,324)"/>
<path d="M0 0 C4.875 2.875 4.875 2.875 6 4 C6.66 2.68 7.32 1.36 8 0 C8.66 0 9.32 0 10 0 C10 4.29 10 8.58 10 13 C8.35 12.67 6.7 12.34 5 12 C4.67 11.01 4.34 10.02 4 9 C4 10.32 4 11.64 4 13 C2.35 13 0.7 13 -1 13 C-1.02686553 11.02090602 -1.04633375 9.04171029 -1.0625 7.0625 C-1.07410156 5.96035156 -1.08570313 4.85820312 -1.09765625 3.72265625 C-1 1 -1 1 0 0 Z " fill="#EDD335" transform="translate(299,324)"/>
<path d="M0 0 C0.66 0.33 1.32 0.66 2 1 C2.87594988 4.57118028 3.41694272 6.98370211 2 10.4375 C0 12 0 12 -3.5625 12.4375 C-4.696875 12.293125 -5.83125 12.14875 -7 12 C-9.46943529 8.29584707 -9.46913089 6.37855495 -9 2 C-6.14652584 -1.38189531 -4.06707002 -1.2843379 0 0 Z M-4 2 C-4.66 2.66 -5.32 3.32 -6 4 C-6 4.99 -6 5.98 -6 7 C-5.34 7 -4.68 7 -4 7 C-3.67 5.35 -3.34 3.7 -3 2 C-3.33 2 -3.66 2 -4 2 Z " fill="#F0D028" transform="translate(345,325)"/>
<path d="M0 0 C0.99 0 1.98 0 3 0 C3.33 0.99 3.66 1.98 4 3 C4.928125 2.2575 4.928125 2.2575 5.875 1.5 C8 0 8 0 10 0 C9.67 0.763125 9.34 1.52625 9 2.3125 C7.82563314 4.99069135 7.82563314 4.99069135 8 8 C8.9793879 9.02019573 9.97895449 10.02149805 11 11 C11 11.66 11 12.32 11 13 C6.25 12.25 6.25 12.25 4 10 C3.67 10.99 3.34 11.98 3 13 C1.68 13 0.36 13 -1 13 C-1.02686553 11.02090602 -1.04633375 9.04171029 -1.0625 7.0625 C-1.07410156 5.96035156 -1.08570312 4.85820312 -1.09765625 3.72265625 C-1 1 -1 1 0 0 Z " fill="#F1D72D" transform="translate(121,324)"/>
<path d="M0 0 C0.928125 0.20625 1.85625 0.4125 2.8125 0.625 C2.791875 1.346875 2.77125 2.06875 2.75 2.8125 C2.71651239 5.6280771 2.71651239 5.6280771 3.4375 8.3125 C3.56125 9.075625 3.685 9.83875 3.8125 10.625 C1.8125 12.625 1.8125 12.625 -1.6875 12.875 C-5.1875 12.625 -5.1875 12.625 -7.1875 10.625 C-7.1875 9.635 -7.1875 8.645 -7.1875 7.625 C-6.5275 7.295 -5.8675 6.965 -5.1875 6.625 C-5.5175 4.975 -5.8475 3.325 -6.1875 1.625 C-3.1875 -0.375 -3.1875 -0.375 0 0 Z M-3.1875 7.625 C-3.1875 8.285 -3.1875 8.945 -3.1875 9.625 C-2.5275 9.625 -1.8675 9.625 -1.1875 9.625 C-1.1875 8.965 -1.1875 8.305 -1.1875 7.625 C-1.8475 7.625 -2.5075 7.625 -3.1875 7.625 Z " fill="#EED236" transform="translate(380.1875,324.375)"/>
<path d="M0 0 C0.66 0 1.32 0 2 0 C2.33 1.32 2.66 2.64 3 4 C3.598125 3.34 4.19625 2.68 4.8125 2 C7 0 7 0 10 0 C9.67 0.5775 9.34 1.155 9 1.75 C7.72924102 4.19883862 7.72924102 4.19883862 8 8 C9.45833358 9.62514468 9.45833358 9.62514468 11 11 C11 11.66 11 12.32 11 13 C9.35 13 7.7 13 6 13 C5.34 11.68 4.68 10.36 4 9 C3.67 10.32 3.34 11.64 3 13 C1.68 13 0.36 13 -1 13 C-1.02686553 11.02090602 -1.04633375 9.04171029 -1.0625 7.0625 C-1.07410156 5.96035156 -1.08570313 4.85820312 -1.09765625 3.72265625 C-1 1 -1 1 0 0 Z " fill="#F2D333" transform="translate(201,324)"/>
<path d="M0 0 C0.99 0.33 1.98 0.66 3 1 C3.33 3.64 3.66 6.28 4 9 C4.33 9 4.66 9 5 9 C5.33 6.36 5.66 3.72 6 1 C7.32 1 8.64 1 10 1 C10.08131463 2.43655854 10.13933559 3.8744483 10.1875 5.3125 C10.22230469 6.11300781 10.25710938 6.91351563 10.29296875 7.73828125 C10 10 10 10 8.71484375 11.8046875 C7 13 7 13 3.375 12.8125 C2.26125 12.544375 1.1475 12.27625 0 12 C-1.1898306 9.6203388 -1.13349966 8.08514265 -1.125 5.4375 C-1.12886719 4.22900391 -1.12886719 4.22900391 -1.1328125 2.99609375 C-1 1 -1 1 0 0 Z " fill="#EECD31" transform="translate(318,324)"/>
<path d="M0 0 C7.875 0.875 7.875 0.875 9 2 C9 4.33333333 9 6.66666667 9 9 C9.42854995 11.31036915 9.42854995 11.31036915 10 13 C5.125 12.125 5.125 12.125 4 11 C4 11.66 4 12.32 4 13 C2.68 13 1.36 13 0 13 C0 8.71 0 4.42 0 0 Z M3 4 C3 4.66 3 5.32 3 6 C3.99 5.67 4.98 5.34 6 5 C5.01 4.67 4.02 4.34 3 4 Z " fill="#F7D516" transform="translate(236,324)"/>
<path d="M0 0 C2.64 0 5.28 0 8 0 C8 3.11257569 7.82638376 5.10765685 7 8 C7.66 8.33 8.32 8.66 9 9 C9 10.32 9 11.64 9 13 C5.7 13 2.4 13 -1 13 C-0.67 8.71 -0.34 4.42 0 0 Z " fill="#ECCD3D" transform="translate(219,324)"/>
<path d="M0 0 C3 1 3 1 4.1328125 3.21484375 C4.46023438 4.11332031 4.78765625 5.01179688 5.125 5.9375 C5.45757812 6.83339844 5.79015625 7.72929687 6.1328125 8.65234375 C6.41898437 9.42707031 6.70515625 10.20179688 7 11 C7.33 11.66 7.66 12.32 8 13 C4.37471432 13.20140476 2.13498292 12.85776765 -1 11 C-1 11.66 -1 12.32 -1 13 C-2.65 13 -4.3 13 -6 13 C-5.57476184 11.39253944 -5.13429874 9.78910164 -4.6875 8.1875 C-4.44386719 7.29417969 -4.20023437 6.40085937 -3.94921875 5.48046875 C-2.9799181 2.94752262 -2.04990396 1.7283504 0 0 Z " fill="#F4D124" transform="translate(360,324)"/>
<path d="M0 0 C1.55521173 0.00031721 3.11044535 0.0116478 4.66552734 0.03173828 C5.89316299 0.03598312 5.89316299 0.03598312 7.14559937 0.04031372 C9.76436877 0.05152546 12.38279848 0.07663149 15.00146484 0.10205078 C16.77489741 0.11207931 18.54833533 0.12120538 20.32177734 0.12939453 C24.6734711 0.151468 29.02491034 0.18600434 33.37646484 0.22705078 C33.37646484 0.88705078 33.37646484 1.54705078 33.37646484 2.22705078 C32.71646484 2.22705078 32.05646484 2.22705078 31.37646484 2.22705078 C31.27462891 2.94248047 31.17279297 3.65791016 31.06787109 4.39501953 C30.29213707 7.57246117 29.04662401 9.77466913 27.31396484 12.53955078 C26.76611328 13.42255859 26.21826172 14.30556641 25.65380859 15.21533203 C25.23228516 15.87919922 24.81076172 16.54306641 24.37646484 17.22705078 C24.04646484 15.90705078 23.71646484 14.58705078 23.37646484 13.22705078 C24.03646484 13.22705078 24.69646484 13.22705078 25.37646484 13.22705078 C24.88146484 11.24705078 24.88146484 11.24705078 24.37646484 9.22705078 C25.36646484 9.22705078 26.35646484 9.22705078 27.37646484 9.22705078 C27.37646484 7.57705078 27.37646484 5.92705078 27.37646484 4.22705078 C28.03646484 4.22705078 28.69646484 4.22705078 29.37646484 4.22705078 C29.37646484 3.56705078 29.37646484 2.90705078 29.37646484 2.22705078 C18.81646484 2.22705078 8.25646484 2.22705078 -2.62353516 2.22705078 C-3.28353516 3.87705078 -3.94353516 5.52705078 -4.62353516 7.22705078 C-5.61353516 7.55705078 -6.60353516 7.88705078 -7.62353516 8.22705078 C-5.21918224 0.32703406 -5.21918224 0.32703406 0 0 Z " fill="#F0D745" transform="translate(187.62353515625,174.77294921875)"/>
<path d="M0 0 C0.33 0 0.66 0 1 0 C1.495 4.95 1.495 4.95 2 10 C-13.84 10.495 -13.84 10.495 -30 11 C-30.66 9.02 -31.32 7.04 -32 5 C-31.34 5 -30.68 5 -30 5 C-30 5.99 -30 6.98 -30 8 C-20.1 8 -10.2 8 0 8 C0 5.36 0 2.72 0 0 Z " fill="#EED036" transform="translate(381,311)"/>
<path d="M0 0 C3.69306869 3.93133118 4.40784692 6.70802144 5 12 C4.0713916 12.02505615 3.1427832 12.0501123 2.18603516 12.07592773 C-1.25435804 12.17097932 -4.69457713 12.27021707 -8.13476562 12.37231445 C-9.62462641 12.41566589 -11.11453695 12.45734084 -12.60449219 12.49731445 C-14.74429327 12.55501215 -16.88384385 12.61870755 -19.0234375 12.68359375 C-20.31169434 12.72025146 -21.59995117 12.75690918 -22.92724609 12.79467773 C-25.9127682 12.79530675 -25.9127682 12.79530675 -28 14 C-28.33 12.35 -28.66 10.7 -29 9 C-28.34 9 -27.68 9 -27 9 C-27 9.66 -27 10.32 -27 11 C-18.42 11 -9.84 11 -1 11 C-1 10.01 -1 9.02 -1 8 C-0.34 8 0.32 8 1 8 C0.67 5.36 0.34 2.72 0 0 Z " fill="#F4D219" transform="translate(267,308)"/>
<path d="M0 0 C0.99 0.33 1.98 0.66 3 1 C3.6875 3.0625 3.6875 3.0625 4 5 C4.66 5 5.32 5 6 5 C6.103125 5.556875 6.20625 6.11375 6.3125 6.6875 C7.12944635 9.43541044 8.52070457 11.55594668 10 14 C10 14.66 10 15.32 10 16 C21.22 16 32.44 16 44 16 C44.33 15.34 44.66 14.68 45 14 C45.495 15.98 45.495 15.98 46 18 C40.83911231 18.10457648 35.68339114 18.14324144 30.52148438 18.12207031 C28.7677923 18.12401167 27.01402388 18.14365395 25.26074219 18.18164062 C10.67936906 18.47955744 10.67936906 18.47955744 6.58691406 14.87402344 C5.03393952 12.28573253 4.01337932 9.83630635 3 7 C2.46358887 6.10812988 1.92717773 5.21625977 1.37451172 4.29736328 C0 2 0 2 0 0 Z " fill="#E4CB52" transform="translate(175,304)"/>
<path d="M0 0 C2.475 0.99 2.475 0.99 5 2 C5 4.97 5 7.94 5 11 C3.68 11 2.36 11 1 11 C0.67 9.68 0.34 8.36 0 7 C-1.32 6.67 -2.64 6.34 -4 6 C-4 4.68 -4 3.36 -4 2 C-2.68 2 -1.36 2 0 2 C0 1.34 0 0.68 0 0 Z " fill="#F4D029" transform="translate(145,324)"/>
<path d="M0 0 C0.66 0.33 1.32 0.66 2 1 C1.67725098 1.55461914 1.35450195 2.10923828 1.02197266 2.68066406 C-0.44493607 5.20305081 -1.90998555 7.72651261 -3.375 10.25 C-3.88289062 11.12269531 -4.39078125 11.99539062 -4.9140625 12.89453125 C-5.64882812 14.16103516 -5.64882812 14.16103516 -6.3984375 15.453125 C-6.84880371 16.22817383 -7.29916992 17.00322266 -7.76318359 17.80175781 C-8.90988423 19.83983371 -9.97450862 21.89878908 -11 24 C-11.05447047 22.58376784 -11.09300508 21.16691809 -11.125 19.75 C-11.14820313 18.96109375 -11.17140625 18.1721875 -11.1953125 17.359375 C-10.97864975 14.74208893 -10.43602193 13.19054193 -9 11 C-8.154375 10.71125 -7.30875 10.4225 -6.4375 10.125 C-5.2309375 9.568125 -5.2309375 9.568125 -4 9 C-3.32882152 6.05636102 -3.32882152 6.05636102 -3 3 C-1.4375 1.125 -1.4375 1.125 0 0 Z " fill="#F2D63D" transform="translate(243,226)"/>
<path d="M0 0 C0.99 0 1.98 0 3 0 C3.22245393 1.60226955 3.42746669 3.20696767 3.625 4.8125 C3.74101562 5.70582031 3.85703125 6.59914063 3.9765625 7.51953125 C4 10 4 10 2 13 C-0.625 13.1875 -0.625 13.1875 -3 13 C-3 11.68 -3 10.36 -3 9 C-2.34 9 -1.68 9 -1 9 C-0.67 6.03 -0.34 3.06 0 0 Z " fill="#F1D22C" transform="translate(257,324)"/>
<path d="M0 0 C4.05664947 -0.0990914 8.1128277 -0.17157106 12.17041016 -0.21972656 C13.5497668 -0.23980642 14.92903869 -0.26707666 16.30810547 -0.30175781 C18.29356979 -0.35042817 20.27966254 -0.37086418 22.265625 -0.390625 C23.45961914 -0.41157227 24.65361328 -0.43251953 25.88378906 -0.45410156 C29.62761756 0.0914579 30.76309104 1.00267634 33 4 C33.75 7.25 33.75 7.25 34 10 C33.34 10.33 32.68 10.66 32 11 C31.566875 9.63875 31.566875 9.63875 31.125 8.25 C30.01252932 4.80833525 30.01252932 4.80833525 28 1 C18.76 1 9.52 1 0 1 C0 0.67 0 0.34 0 0 Z " fill="#F7D218" transform="translate(285,176)"/>
<path d="M0 0 C0.99 0.33 1.98 0.66 3 1 C3 4.96 3 8.92 3 13 C1.35 13 -0.3 13 -2 13 C-1.85966889 11.02043559 -1.7125877 9.04134859 -1.5625 7.0625 C-1.48128906 5.96035156 -1.40007812 4.85820312 -1.31640625 3.72265625 C-1 1 -1 1 0 0 Z " fill="#F4D434" transform="translate(159,324)"/>
<path d="M0 0 C3.92491136 4.52874388 7.37459686 9.60598991 10 15 C9.67 15.66 9.34 16.32 9 17 C8.21625 16.360625 7.4325 15.72125 6.625 15.0625 C4.20460719 13.01857687 4.20460719 13.01857687 2 12 C1.34 11.01 0.68 10.02 0 9 C0.33 8.67 0.66 8.34 1 8 C0.8981629 6.08575543 0.8981629 6.08575543 0.5625 3.9375 C0.376875 2.638125 0.19125 1.33875 0 0 Z " fill="#F3D221" transform="translate(243,267)"/>
<path d="M0 0 C0.99 0.33 1.98 0.66 3 1 C3.16721119 2.81244985 3.33375441 4.62496133 3.5 6.4375 C3.5928125 7.44683594 3.685625 8.45617187 3.78125 9.49609375 C4 12 4 12 4 13 C2.35 13 0.7 13 -1 13 C-1.02686553 11.02090602 -1.04633375 9.04171029 -1.0625 7.0625 C-1.07410156 5.96035156 -1.08570313 4.85820312 -1.09765625 3.72265625 C-1 1 -1 1 0 0 Z " fill="#F4D322" transform="translate(299,324)"/>
<path d="M0 0 C0.66 0 1.32 0 2 0 C2 0.66 2 1.32 2 2 C2.66 2 3.32 2 4 2 C4 2.66 4 3.32 4 4 C4.66 4 5.32 4 6 4 C6 3.34 6 2.68 6 2 C6.99 2.33 7.98 2.66 9 3 C8.79375 3.66 8.5875 4.32 8.375 5 C7.86296237 9.09630108 8.85966299 12.04235979 10 16 C6.78967573 13.0618554 4.78017252 10.15239702 2.75 6.3125 C1.96882812 4.85263672 1.96882812 4.85263672 1.171875 3.36328125 C0 1 0 1 0 0 Z M9 2 C11 3 11 3 11 3 Z " fill="#F7D226" transform="translate(165,287)"/>
<path d="M0 0 C1.98 0.66 3.96 1.32 6 2 C6.16435547 2.96099609 6.16435547 2.96099609 6.33203125 3.94140625 C7.10312961 8.1479672 7.86814279 12.04841531 9.6875 15.9375 C11 19 11 19 10 22 C9.16209211 20.21046815 8.32980604 18.41830305 7.5 16.625 C6.80390625 15.12839844 6.80390625 15.12839844 6.09375 13.6015625 C5 11 5 11 5 9 C4.34 8.67 3.68 8.34 3 8 C0 1.53846154 0 1.53846154 0 0 Z " fill="#F4D62D" transform="translate(321,256)"/>
<path d="M0 0 C0.99 0 1.98 0 3 0 C3.061875 1.0725 3.12375 2.145 3.1875 3.25 C4.16353466 7.75477536 5.43738517 8.32803888 9 11 C9.9375 13.5 9.9375 13.5 10 16 C9.37483859 17.35329059 8.71285871 18.69078089 8 20 C4.51807217 13.43032485 1.40985776 7.33126033 0 0 Z " fill="#F4D22B" transform="translate(340,296)"/>
<path d="M0 0 C9.24 0 18.48 0 28 0 C28 0.33 28 0.66 28 1 C19.09 1 10.18 1 1 1 C1.66 2.32 2.32 3.64 3 5 C2.67 5.33 2.34 5.66 2 6 C1.63239269 8.32817964 1.29758419 10.6618385 1 13 C0.67 13 0.34 13 0 13 C0 8.71 0 4.42 0 0 Z " fill="#F8D317" transform="translate(355,176)"/>
<path d="M0 0 C0.66 0 1.32 0 2 0 C0.68925635 4.46182436 -1.07066011 7.99618757 -3.625 11.875 C-4.57246094 13.32519531 -4.57246094 13.32519531 -5.5390625 14.8046875 C-6.02117187 15.52914062 -6.50328125 16.25359375 -7 17 C-8.09658936 13.71023192 -7.79953138 12.28696233 -7 9 C-6.01 9 -5.02 9 -4 9 C-3.67 6.69 -3.34 4.38 -3 2 C-2.01 2.33 -1.02 2.66 0 3 C0 2.01 0 1.02 0 0 Z " fill="#F2D633" transform="translate(253,208)"/>
<path d="M0 0 C3.30477928 1.65238964 4.19939987 5.20781576 5.6875 8.4375 C6.02072266 9.13166016 6.35394531 9.82582031 6.69726562 10.54101562 C7.53091594 12.33137066 8.27264253 14.16389131 9 16 C8.67 16.66 8.34 17.32 8 18 C7.34 17.67 6.68 17.34 6 17 C5.5 15 5.5 15 5 13 C4.34 12.67 3.68 12.34 3 12 C2.1484375 10.29296875 2.1484375 10.29296875 1.375 8.1875 C0.98441406 7.15689453 0.98441406 7.15689453 0.5859375 6.10546875 C0 4 0 4 0 0 Z " fill="#F3D132" transform="translate(319,186)"/>
<path d="M0 0 C0.5859375 1.87890625 0.5859375 1.87890625 1 4 C0.03542166 5.35917857 -0.96854629 6.69084721 -2 8 C-2.2165625 9.2375 -2.2165625 9.2375 -2.4375 10.5 C-3.15822938 13.7032417 -4.49157032 14.94764844 -7 17 C-7.66 17 -8.32 17 -9 17 C-7.51481201 12.95698825 -5.57122002 9.38853744 -3.375 5.6875 C-2.74335938 4.61886719 -2.11171875 3.55023438 -1.4609375 2.44921875 C-0.97882813 1.64097656 -0.49671875 0.83273438 0 0 Z " fill="#F9DC33" transform="translate(166,205)"/>
<path d="M0 0 C0.33 0.66 0.66 1.32 1 2 C0.67 2.99 0.34 3.98 0 5 C0.87914688 7.6569191 0.87914688 7.6569191 2 10 C-2.75 11 -2.75 11 -5 11 C-5 11.66 -5 12.32 -5 13 C-5.66 12.67 -6.32 12.34 -7 12 C-6.02296079 10.1863523 -5.04330895 8.37411183 -4.0625 6.5625 C-3.51722656 5.55316406 -2.97195312 4.54382813 -2.41015625 3.50390625 C-1 1 -1 1 0 0 Z " fill="#FADC2F" transform="translate(236,180)"/>
<path d="M0 0 C0.33 1.32 0.66 2.64 1 4 C1.99 4.33 2.98 4.66 4 5 C4.33 5.66 4.66 6.32 5 7 C4.01 7 3.02 7 2 7 C1.67 7.99 1.34 8.98 1 10 C-0.65 10 -2.3 10 -4 10 C-2.68 6.7 -1.36 3.4 0 0 Z " fill="#EED230" transform="translate(270,327)"/>
<path d="M0 0 C0.33 0 0.66 0 1 0 C1.66 2.64 2.32 5.28 3 8 C3.99 8 4.98 8 6 8 C6.66 7.01 7.32 6.02 8 5 C8.66 5.33 9.32 5.66 10 6 C10.33 5.01 10.66 4.02 11 3 C12 6 12 6 11 8.1875 C9 10 9 10 5.4375 10.4375 C4.303125 10.293125 3.16875 10.14875 2 10 C-0.4294516 6.3558226 -0.16179575 4.28758728 0 0 Z " fill="#ECD13F" transform="translate(336,327)"/>
<path d="M0 0 C1.98 0.495 1.98 0.495 4 1 C3.979375 2.0725 3.95875 3.145 3.9375 4.25 C3.9857984 7.14790424 4.13155885 9.28612141 5 12 C3.35 11.67 1.7 11.34 0 11 C-0.33 10.01 -0.66 9.02 -1 8 C-0.01 8 0.98 8 2 8 C2 7.01 2 6.02 2 5 C1.34 4.67 0.68 4.34 0 4 C0.66 3.01 1.32 2.02 2 1 C1.34 0.67 0.68 0.34 0 0 Z " fill="#EAD23E" transform="translate(241,325)"/>
<path d="M0 0 C1.65 0.33 3.3 0.66 5 1 C5 4 5 7 5 10 C4.01 9.34 3.02 8.68 2 8 C1.01 8 0.02 8 -1 8 C-0.67 5.36 -0.34 2.72 0 0 Z " fill="#F7CE16" transform="translate(149,258)"/>
<path d="M0 0 C1.32 0 2.64 0 4 0 C2.35821735 4.77609498 -0.26546702 8.79382904 -3 13 C-3.66 12.67 -4.32 12.34 -5 12 C-3.92598892 9.08482708 -3.22189824 7.22189824 -1 5 C-0.35232207 2.42938689 -0.35232207 2.42938689 0 0 Z " fill="#F6DA2E" transform="translate(207,192)"/>
<path d="M0 0 C0.99 0.33 1.98 0.66 3 1 C3.6875 3.0625 3.6875 3.0625 4 5 C4.66 5 5.32 5 6 5 C6.12246094 5.57234375 6.24492187 6.1446875 6.37109375 6.734375 C7.02762868 9.09953191 7.93723512 11.07206797 9.0625 13.25 C9.42472656 13.95640625 9.78695312 14.6628125 10.16015625 15.390625 C10.43730469 15.92171875 10.71445313 16.4528125 11 17 C10.34 17 9.68 17 9 17 C7.59765625 14.98828125 7.59765625 14.98828125 6.0625 12.3125 C5.55847656 11.44238281 5.05445313 10.57226562 4.53515625 9.67578125 C3.77525391 8.35126953 3.77525391 8.35126953 3 7 C2.16275391 5.66001953 2.16275391 5.66001953 1.30859375 4.29296875 C0 2 0 2 0 0 Z " fill="#F4DB37" transform="translate(175,304)"/>
<path d="M0 0 C0.66 0.99 1.32 1.98 2 3 C1.01 4.485 1.01 4.485 0 6 C-0.66 6 -1.32 6 -2 6 C-2.103125 6.556875 -2.20625 7.11375 -2.3125 7.6875 C-3.14178408 10.4769101 -4.34299056 12.6139064 -6 15 C-6.66 15 -7.32 15 -8 15 C-6.62712658 11.30123909 -4.93644547 8.0485524 -2.875 4.6875 C-2.33617187 3.80449219 -1.79734375 2.92148438 -1.2421875 2.01171875 C-0.83226562 1.34785156 -0.42234375 0.68398437 0 0 Z " fill="#F8E139" transform="translate(175,190)"/>
<path d="M0 0 C0.99 0.33 1.98 0.66 3 1 C3 1.99 3 2.98 3 4 C3.99 4.33 4.98 4.66 6 5 C6.12375 5.763125 6.2475 6.52625 6.375 7.3125 C6.88102792 10.20267136 6.88102792 10.20267136 9 13 C8.625 15.1875 8.625 15.1875 8 17 C7.608125 16.175 7.21625 15.35 6.8125 14.5 C5.05855623 11.11307411 3.10514229 7.99795617 0.98828125 4.83203125 C0 3 0 3 0 0 Z " fill="#F3DD36" transform="translate(200,251)"/>
<path d="M0 0 C3.2531655 3.74114033 5.44374911 8.31315138 7 13 C6.67 13.66 6.34 14.32 6 15 C5.34 14.67 4.68 14.34 4 14 C4 12.68 4 11.36 4 10 C2.68 9.34 1.36 8.68 0 8 C0 5.36 0 2.72 0 0 Z " fill="#F4D32E" transform="translate(329,206)"/>
<path d="M0 0 C0.99 0.33 1.98 0.66 3 1 C2.67 1.66 2.34 2.32 2 3 C1.34 2.67 0.68 2.34 0 2 C0.34227572 4.97065509 0.34227572 4.97065509 1 8 C1.66 8.33 2.32 8.66 3 9 C2.6875 10.9375 2.6875 10.9375 2 13 C1.01 13.33 0.02 13.66 -1 14 C-1.02685938 11.85423363 -1.04633088 9.70837355 -1.0625 7.5625 C-1.07410156 6.36753906 -1.08570313 5.17257812 -1.09765625 3.94140625 C-1 1 -1 1 0 0 Z " fill="#ECD142" transform="translate(171,324)"/>
<path d="M0 0 C-1.64178265 4.77609498 -4.26546702 8.79382904 -7 13 C-7.93423645 9.98968256 -8.04449911 9.13349732 -7 6 C-6.01 6 -5.02 6 -4 6 C-4 5.01 -4 4.02 -4 3 C-4.66 2.67 -5.32 2.34 -6 2 C-2.25 0 -2.25 0 0 0 Z " fill="#F3D52F" transform="translate(263,195)"/>
<path d="M0 0 C1.98 0.99 1.98 0.99 4 2 C4 3.32 4 4.64 4 6 C4.99 6.33 5.98 6.66 7 7 C7.33 9.31 7.66 11.62 8 14 C0 4.57142857 0 4.57142857 0 0 Z " fill="#F4DC39" transform="translate(157,273)"/>
<path d="M0 0 C0.598125 0.185625 1.19625 0.37125 1.8125 0.5625 C4.16408762 1.22093687 4.16408762 1.22093687 7 0 C6.67 1.32 6.34 2.64 6 4 C5.34 4 4.68 4 4 4 C3.34 5.32 2.68 6.64 2 8 C2 7.01 2 6.02 2 5 C1.34 5 0.68 5 0 5 C-0.33 5.66 -0.66 6.32 -1 7 C-0.67 4.69 -0.34 2.38 0 0 Z " fill="#F5D415" transform="translate(148,227)"/>
<path d="M0 0 C1.32 0 2.64 0 4 0 C4 0.66 4 1.32 4 2 C3.34 2 2.68 2 2 2 C2 2.66 2 3.32 2 4 C3.32 4 4.64 4 6 4 C6 4.66 6 5.32 6 6 C3.69 6 1.38 6 -1 6 C-0.67 4.02 -0.34 2.04 0 0 Z " fill="#F5D119" transform="translate(221,330)"/>
<path d="M0 0 C2.63978826 3.18595135 5.10498388 6.30970546 7 10 C6.67 10.66 6.34 11.32 6 12 C3.525 11.01 3.525 11.01 1 10 C1.020625 9.278125 1.04125 8.55625 1.0625 7.8125 C1.00179441 5.08074862 0.60741465 2.65743909 0 0 Z " fill="#F1DB2B" transform="translate(233,250)"/>
<path d="M0 0 C0.66 0 1.32 0 2 0 C0.43358249 4.30764815 -1.68336156 8.06171464 -4 12 C-5.09658936 8.71023192 -4.79953138 7.28696233 -4 4 C-3.01 4 -2.02 4 -1 4 C-0.67 2.68 -0.34 1.36 0 0 Z " fill="#F7DA35" transform="translate(268,183)"/>
<path d="M0 0 C1.65 0 3.3 0 5 0 C4.34 1.98 3.68 3.96 3 6 C1.68 5.67 0.36 5.34 -1 5 C-0.67 3.35 -0.34 1.7 0 0 Z " fill="#F5D91A" transform="translate(376,326)"/>
<path d="M0 0 C0.99 0 1.98 0 3 0 C2.45144652 4.571279 1.58255197 8.67435795 0 13 C-0.33 13 -0.66 13 -1 13 C-1.0272415 11.58344207 -1.04650467 10.16672955 -1.0625 8.75 C-1.07410156 7.96109375 -1.08570313 7.1721875 -1.09765625 6.359375 C-1.00385306 4.09308998 -0.63241063 2.1711105 0 0 Z " fill="#F6D624" transform="translate(233,237)"/>
<path d="M0 0 C1.54571278 2.31856917 2.79618552 4.50638429 4 7 C0.28400809 7.20086443 -0.77208445 7.1519437 -4 5 C-4 4.34 -4 3.68 -4 3 C-2.68 3 -1.36 3 0 3 C0 2.01 0 1.02 0 0 Z " fill="#E8CD41" transform="translate(364,330)"/>
<path d="M0 0 C0.99 0.33 1.98 0.66 3 1 C3 4.96 3 8.92 3 13 C1.68 12.67 0.36 12.34 -1 12 C-0.01 12 0.98 12 2 12 C1.67 9.03 1.34 6.06 1 3 C0.34 3.99 -0.32 4.98 -1 6 C-1.042721 4.33388095 -1.04063832 2.66617115 -1 1 C-0.67 0.67 -0.34 0.34 0 0 Z " fill="#EDD35C" transform="translate(178,324)"/>
<path d="M0 0 C0.99 1.32 1.98 2.64 3 4 C1.75 5.5625 1.75 5.5625 0 7 C-2.1875 6.6875 -2.1875 6.6875 -4 6 C-4 4.68 -4 3.36 -4 2 C-2.68 2 -1.36 2 0 2 C0 1.34 0 0.68 0 0 Z " fill="#F4B729" transform="translate(145,324)"/>
<path d="M0 0 C2.50298434 2.93828597 3.46930939 5.17902761 4 9 C2.68 9.33 1.36 9.66 0 10 C-0.33 8.68 -0.66 7.36 -1 6 C-0.34 6 0.32 6 1 6 C0.67 4.02 0.34 2.04 0 0 Z " fill="#EFD541" transform="translate(276,328)"/>
<path d="M0 0 C1.32 0.33 2.64 0.66 4 1 C3.01 1 2.02 1 1 1 C1.52480001 7.28908482 1.52480001 7.28908482 4 13 C2.68 13 1.36 13 0 13 C0 8.71 0 4.42 0 0 Z " fill="#F2D84E" transform="translate(236,324)"/>
<path d="M0 0 C-0.80847729 1.16945792 -1.62189112 2.33550461 -2.4375 3.5 C-2.88996094 4.1496875 -3.34242188 4.799375 -3.80859375 5.46875 C-4.20175781 5.9740625 -4.59492188 6.479375 -5 7 C-5.33 7 -5.66 7 -6 7 C-6 4.69 -6 2.38 -6 0 C-2.25 -1.125 -2.25 -1.125 0 0 Z " fill="#F4D427" transform="translate(183,241)"/>
<path d="M0 0 C1.32 0 2.64 0 4 0 C4 0.66 4 1.32 4 2 C4.66 2.33 5.32 2.66 6 3 C5 4 5 4 1.4375 4.0625 C0.303125 4.041875 -0.83125 4.02125 -2 4 C-2.33 3.34 -2.66 2.68 -3 2 C-2.01 2 -1.02 2 0 2 C0 1.34 0 0.68 0 0 Z " fill="#E8CC3C" transform="translate(142,333)"/>
<path d="M0 0 C2.1519437 3.22791555 2.20086443 4.28400809 2 8 C1.34 8 0.68 8 0 8 C-0.99 5.69 -1.98 3.38 -3 1 C-2.01 0.67 -1.02 0.34 0 0 Z " fill="#F6DA2B" transform="translate(234,305)"/>
<path d="M0 0 C3.16115776 1.36983503 3.9927092 1.9890638 6 5 C6.125 7.6875 6.125 7.6875 6 10 C3.25722422 6.80009492 1.3697164 3.99500618 0 0 Z " fill="#F3D82D" transform="translate(225,296)"/>
<path d="M0 0 C2.52259061 1.97420135 2.9929808 2.96745642 3.6875 6.1875 C3.790625 7.115625 3.89375 8.04375 4 9 C3.01 9.495 3.01 9.495 2 10 C1.566875 8.6078125 1.566875 8.6078125 1.125 7.1875 C0.1125 3.90208333 0.1125 3.90208333 -2 1 C-1.34 0.67 -0.68 0.34 0 0 Z " fill="#F4D232" transform="translate(315,177)"/>
<path d="M0 0 C-1.24976756 3.65316671 -1.67098753 4.78065836 -5 7 C-5.33 5.68 -5.66 4.36 -6 3 C-2.25 0 -2.25 0 0 0 Z " fill="#ECD344" transform="translate(131,324)"/>
<path d="M0 0 C2.72426311 2.35277269 3.8141763 4.62496331 5 8 C3.02 7.01 1.04 6.02 -1 5 C-0.67 3.35 -0.34 1.7 0 0 Z " fill="#F2D227" transform="translate(188,265)"/>
<path d="M0 0 C0.66 0 1.32 0 2 0 C0.74194623 4.50802601 -0.90407165 7.4912812 -4 11 C-4.1875 8.6875 -4.1875 8.6875 -4 6 C-2.5625 4.375 -2.5625 4.375 -1 3 C-0.67 2.01 -0.34 1.02 0 0 Z " fill="#F3DA38" transform="translate(201,205)"/>
<path d="M0 0 C2.1875 1.3125 2.1875 1.3125 4 3 C4 3.66 4 4.32 4 5 C1.625 4.6875 1.625 4.6875 -1 4 C-1.66 3.01 -2.32 2.02 -3 1 C-2.01 0.67 -1.02 0.34 0 0 Z " fill="#F2DA47" transform="translate(128,332)"/>
<path d="M0 0 C1.32 0 2.64 0 4 0 C3.34 1.98 2.68 3.96 2 6 C1.34 6 0.68 6 0 6 C0 4.02 0 2.04 0 0 Z " fill="#F9D609" transform="translate(121,330)"/>
<path d="M0 0 C2.0625 1.6875 2.0625 1.6875 4 4 C3.75 6.75 3.75 6.75 3 9 C0.90250005 6.64031256 0.03094296 5.45383006 -0.1875 2.25 C-0.125625 1.5075 -0.06375 0.765 0 0 Z " fill="#F0D228" transform="translate(302,326)"/>
<path d="M0 0 C0.99 0 1.98 0 3 0 C3 2.64 3 5.28 3 8 C2.01 7.34 1.02 6.68 0 6 C-0.1875 2.875 -0.1875 2.875 0 0 Z " fill="#F1D83B" transform="translate(257,324)"/>
<path d="M0 0 C2.74277578 3.19990508 4.6302836 6.00499382 6 10 C4.68 9.34 3.36 8.68 2 8 C2 6.68 2 5.36 2 4 C1.34 4 0.68 4 0 4 C0 2.68 0 1.36 0 0 Z " fill="#F0CD34" transform="translate(209,300)"/>
<path d="M0 0 C3.44216672 2.6598561 3.99504674 5.90288286 5 10 C4.34 10 3.68 10 3 10 C3 9.01 3 8.02 3 7 C2.34 7 1.68 7 1 7 C0.67 4.69 0.34 2.38 0 0 Z " fill="#F9DB3F" transform="translate(340,230)"/>
<path d="M0 0 C0.185625 0.9590625 0.185625 0.9590625 0.375 1.9375 C0.684375 2.9584375 0.684375 2.9584375 1 4 C1.66 4.33 2.32 4.66 3 5 C3 5.66 3 6.32 3 7 C1.35 7 -0.3 7 -2 7 C-1.34 4.69 -0.68 2.38 0 0 Z " fill="#E9D145" transform="translate(356,330)"/>
<path d="" fill="#FFFF80" transform="translate(0,0)"/>
</svg>
